<svg width="287" height="140" viewBox="0 0 287 140" fill="none" xmlns="http://www.w3.org/2000/svg">
<line x1="4.35355" y1="77.6464" x2="34.3536" y2="107.646" stroke="black"/>
<rect x="8.5" y="0.5" width="48" height="8" transform="rotate(90 8.5 0.5)" stroke="black"/>
<rect x="8.5" y="58.5" width="8" height="8" transform="rotate(90 8.5 58.5)" stroke="black"/>
<path d="M5.00684 78H4.00684V66.5H5.00684V78ZM5.00684 58.5H4.00684V0H5.00684V58.5Z" fill="black"/>
<path d="M287 86H282V132H287V133H281V85H287V86Z" fill="black"/>
<rect x="282" y="99" width="4" height="19" fill="black"/>
<line x1="34" y1="107.5" x2="281" y2="107.5" stroke="black"/>
<line x1="77" y1="134.4" x2="66" y2="134.4" stroke="black" stroke-width="2"/>
<line x1="71.3462" y1="140" x2="71.3462" y2="129" stroke="black" stroke-width="2"/>
<line x1="120" y1="134.4" x2="109" y2="134.4" stroke="black" stroke-width="2"/>
<line x1="114.346" y1="140" x2="114.346" y2="129" stroke="black" stroke-width="2"/>
<line x1="163" y1="134.4" x2="152" y2="134.4" stroke="black" stroke-width="2"/>
<line x1="157.346" y1="140" x2="157.346" y2="129" stroke="black" stroke-width="2"/>
<line x1="206" y1="134.4" x2="195" y2="134.4" stroke="black" stroke-width="2"/>
<line x1="200.346" y1="140" x2="200.346" y2="129" stroke="black" stroke-width="2"/>
<line x1="249" y1="134.4" x2="238" y2="134.4" stroke="black" stroke-width="2"/>
<line x1="243.346" y1="140" x2="243.346" y2="129" stroke="black" stroke-width="2"/>
</svg>
