<svg width="353" height="189" viewBox="0 0 353 189" fill="none" xmlns="http://www.w3.org/2000/svg">
<line y1="168.542" x2="353" y2="168.542" stroke="#F5F1EA"/>
<line y1="143.683" x2="353" y2="143.683" stroke="#F5F1EA"/>
<line y1="118.824" x2="353" y2="118.824" stroke="#F5F1EA"/>
<line y1="93.9648" x2="353" y2="93.9648" stroke="#F5F1EA"/>
<line y1="69.1056" x2="353" y2="69.1056" stroke="#F5F1EA"/>
<line y1="44.2465" x2="353" y2="44.2465" stroke="#F5F1EA"/>
<line y1="19.3873" x2="353" y2="19.3873" stroke="#F5F1EA"/>
<line x1="341.07" y1="2.18557e-08" x2="341.07" y2="188.93" stroke="#F5F1EA"/>
<line x1="316.211" y1="2.18557e-08" x2="316.211" y2="188.93" stroke="#F5F1EA"/>
<line x1="291.352" y1="2.18557e-08" x2="291.352" y2="188.93" stroke="#F5F1EA"/>
<line x1="266.493" y1="2.18557e-08" x2="266.493" y2="188.93" stroke="#F5F1EA"/>
<line x1="241.634" y1="2.18557e-08" x2="241.634" y2="188.93" stroke="#F5F1EA"/>
<line x1="216.775" y1="2.18557e-08" x2="216.775" y2="188.93" stroke="#F5F1EA"/>
<line x1="191.916" y1="2.18557e-08" x2="191.916" y2="188.93" stroke="#F5F1EA"/>
<line x1="167.056" y1="2.18557e-08" x2="167.056" y2="188.93" stroke="#F5F1EA"/>
<line x1="142.197" y1="2.18557e-08" x2="142.197" y2="188.93" stroke="#F5F1EA"/>
<line x1="117.338" y1="2.18557e-08" x2="117.338" y2="188.93" stroke="#F5F1EA"/>
<line x1="92.4789" y1="2.18557e-08" x2="92.4789" y2="188.93" stroke="#F5F1EA"/>
<line x1="67.6198" y1="2.18557e-08" x2="67.6197" y2="188.93" stroke="#F5F1EA"/>
<line x1="42.7606" y1="2.18557e-08" x2="42.7606" y2="188.93" stroke="#F5F1EA"/>
<line x1="17.9014" y1="2.18557e-08" x2="17.9014" y2="188.93" stroke="#F5F1EA"/>
</svg>
