<svg width="76" height="70" viewBox="0 0 76 70" fill="none" xmlns="http://www.w3.org/2000/svg">
<path d="M41.1338 6.62109C48.5228 -1.58899 61.1687 -2.25504 69.3789 5.13378C77.589 12.5228 78.255 25.1687 70.8662 33.3789L52.8662 53.3789L38 69.8965L23.1338 53.3789L5.13378 33.3789C-2.25504 25.1687 -1.58899 12.5228 6.62109 5.13378C14.8313 -2.25504 27.4771 -1.58899 34.8662 6.62109L38 10.1035L41.1338 6.62109ZM37.5615 42.6816C36.7859 42.6816 36.1204 42.9545 35.5664 43.5C35.0211 44.0454 34.749 44.7018 34.749 45.4687C34.749 46.2527 35.0211 46.9175 35.5664 47.4629C36.1204 48.0083 36.7859 48.2812 37.5615 48.2812C38.0726 48.2812 38.5366 48.1572 38.9541 47.9101C39.3802 47.6545 39.7218 47.3138 39.9775 46.8877C40.2417 46.4616 40.374 45.9886 40.374 45.4687C40.374 44.7018 40.0926 44.0454 39.5303 43.5C38.9764 42.9546 38.3198 42.6817 37.5615 42.6816ZM35.0937 21.8184L35.5029 40.3037H39.6191L40.041 21.8184H35.0937Z" fill="black"/>
</svg>
