<svg width="769" height="219" viewBox="0 0 769 219" fill="none" xmlns="http://www.w3.org/2000/svg">
<line x1="79" y1="213.4" x2="68" y2="213.4" stroke="black" stroke-width="2"/>
<line x1="73.3462" y1="219" x2="73.3462" y2="208" stroke="black" stroke-width="2"/>
<line x1="122" y1="213.4" x2="111" y2="213.4" stroke="black" stroke-width="2"/>
<line x1="116.346" y1="219" x2="116.346" y2="208" stroke="black" stroke-width="2"/>
<line x1="165" y1="213.4" x2="154" y2="213.4" stroke="black" stroke-width="2"/>
<line x1="159.346" y1="219" x2="159.346" y2="208" stroke="black" stroke-width="2"/>
<line x1="208" y1="213.4" x2="197" y2="213.4" stroke="black" stroke-width="2"/>
<line x1="202.346" y1="219" x2="202.346" y2="208" stroke="black" stroke-width="2"/>
<line x1="251" y1="213.4" x2="240" y2="213.4" stroke="black" stroke-width="2"/>
<line x1="245.346" y1="219" x2="245.346" y2="208" stroke="black" stroke-width="2"/>
<circle cx="758.5" cy="10.5" r="10" fill="black" stroke="black"/>
<circle cx="727.5" cy="10.5" r="10" fill="#F5F1EA" stroke="#F5F1EA"/>
<circle cx="758.5" cy="40.5" r="10" stroke="black"/>
<line x1="26" y1="10.5" x2="426" y2="10.5" stroke="black"/>
<rect x="6.36396" y="4.70711" width="8" height="8" transform="rotate(45 6.36396 4.70711)" fill="black" stroke="black"/>
<line x1="416.354" y1="9.64645" x2="437.354" y2="30.6464" stroke="black"/>
<line x1="424.354" y1="9.64645" x2="445.354" y2="30.6464" stroke="black"/>
<line x1="437" y1="30.5" x2="632" y2="30.5" stroke="black"/>
<line x1="6.49999" y1="15" x2="6.49999" y2="26" stroke="black"/>
<path d="M437.5 31L417.5 11H425L445 31H437.5Z" fill="black" stroke="black"/>
<line x1="6.35355" y1="156.646" x2="36.3535" y2="186.646" stroke="black"/>
<rect x="10.5" y="79.5" width="48" height="8" transform="rotate(90 10.5 79.5)" stroke="black"/>
<rect x="10.5" y="137.5" width="8" height="8" transform="rotate(90 10.5 137.5)" stroke="black"/>
<path d="M7.00683 157H6.00683V145.5H7.00683V157ZM7.00683 137.5H6.00683V79H7.00683V137.5Z" fill="black"/>
<path d="M289 165H284V211H289V212H283V164H289V165Z" fill="black"/>
<rect x="284" y="178" width="4" height="19" fill="black"/>
<line x1="36" y1="186.5" x2="283" y2="186.5" stroke="black"/>
</svg>
