<svg width="326" height="140" viewBox="0 0 326 140" fill="none" xmlns="http://www.w3.org/2000/svg">
<rect x="8.5" y="0.5" width="48" height="8" transform="rotate(90 8.5 0.5)" stroke="#F5F1EA"/>
<rect x="8.5" y="59.5" width="8" height="8" transform="rotate(90 8.5 59.5)" fill="#F5F1EA" stroke="#F5F1EA"/>
<line x1="77" y1="134.4" x2="66" y2="134.4" stroke="#F5F1EA" stroke-width="2"/>
<line x1="71.3462" y1="140" x2="71.3462" y2="129" stroke="#F5F1EA" stroke-width="2"/>
<line x1="120" y1="134.4" x2="109" y2="134.4" stroke="#F5F1EA" stroke-width="2"/>
<line x1="114.346" y1="140" x2="114.346" y2="129" stroke="#F5F1EA" stroke-width="2"/>
<line x1="163" y1="134.4" x2="152" y2="134.4" stroke="#F5F1EA" stroke-width="2"/>
<line x1="157.346" y1="140" x2="157.346" y2="129" stroke="#F5F1EA" stroke-width="2"/>
<line x1="206" y1="134.4" x2="195" y2="134.4" stroke="#F5F1EA" stroke-width="2"/>
<line x1="200.346" y1="140" x2="200.346" y2="129" stroke="#F5F1EA" stroke-width="2"/>
<line x1="249" y1="134.4" x2="238" y2="134.4" stroke="#F5F1EA" stroke-width="2"/>
<line x1="243.346" y1="140" x2="243.346" y2="129" stroke="#F5F1EA" stroke-width="2"/>
<path d="M326 84H321V130H326V131H320V83H326V84Z" fill="#F5F1EA"/>
</svg>
