<svg xmlns="http://www.w3.org/2000/svg" xmlns:xlink="http://www.w3.org/1999/xlink" width="3951" height="843.154" viewBox="0 0 3951 843.154">
  <defs>
    <linearGradient id="linear-gradient" x1="0.5" x2="0.5" y2="1" gradientUnits="objectBoundingBox">
      <stop offset="0" stop-color="#1c5e7c"/>
      <stop offset="1" stop-color="#293f52"/>
    </linearGradient>
  </defs>
  <path id="Path_2" data-name="Path 2" d="M204.242,445.072c90.348,0,88.125,50.53,145.357,50.53s50.056-153.16,122.126-153.16c80.9,0,70.56,50.193,131.944,50.193,64.135,0,88.351-178.754,181.191-178.342s60.668-40.45,139.174-40.45c123.2,0,152.433,452.586,233.361,452.586S1265.237,737.6,1324.669,737.6c126.435,0,152.438,189.143,247.683,189.143,53.432,0,86.822-124,173.864-124.242s108.316-125.041,185.968-125.819c71.324-.714,65.581,60.919,130.078,60.919,74.3,0,81.689-173.616,185.668-173.616s74.322-58.609,166.364-58.609c93.386-.97,42.754-305.266,217.52-305.636,129.034-.273,87.756-55.545,175.286-55.545s101.083,232.3,198.493,232.3c113.229,0,127.985,105.367,183.731,105.367,100.413,3.328,101.325-197.892,202.7-197.892,90.25,0,65.049,267.261,230.832,267.261,83.536,0,88.471,114.786,169.885,114.786S3951,737.6,3951,737.6V984.893L0,987.352S113.894,445.072,204.242,445.072Z" transform="translate(0 -144.198)" fill="url(#linear-gradient)"/>
</svg>
